<svg xmlns="http://www.w3.org/2000/svg" viewBox="0 0 170.59 125.85"><defs><style>.cls-1,.cls-2{fill:#2563eb;}.cls-2{stroke:#fff;stroke-linecap:round;stroke-linejoin:round;stroke-width:5px;}</style></defs><title>book-logo</title><g id="Layer_2" data-name="Layer 2"><g id="BACKGROUND"><rect class="cls-1" width="170.59" height="125.85"/></g><g id="OBJECTS"><path class="cls-2" d="M85.1,62C79.88,36,29.36,44.63,29.36,44.63V82.55s52.13,0,55.74,22Z"/><path class="cls-2" d="M85.5,62c5.21-26,55.73-17.41,55.73-17.41V82.55s-52.12,0-55.73,22Z"/><path class="cls-2" d="M85.45,57.23c-3.84-30.9-41.06-27.9-41.06-27.9V75.19s38.4,3.2,41.06,29.41Z"/><path class="cls-2" d="M85.74,57.23c3.84-30.9,41.05-27.9,41.05-27.9V75.19S88.4,78.39,85.74,104.6Z"/><path class="cls-2" d="M95.61,55.6a19.78,19.78,0,0,1,17.75-11.82"/><path class="cls-2" d="M95.61,67.42A19.78,19.78,0,0,1,113.36,55.6"/><path class="cls-2" d="M74.36,55.6A19.78,19.78,0,0,0,56.61,43.78"/><path class="cls-2" d="M74.36,67.42A19.78,19.78,0,0,0,56.61,55.6"/></g></g></svg>