<svg xmlns="http://www.w3.org/2000/svg" viewBox="0 0 346.19 367.93"><defs><style>.cls-1{fill:#333;}.cls-2{fill:#9fc1fc;}.cls-3{fill:#ffc1c2;}.cls-4{fill:#fff;}.cls-5{fill:#ffdbdb;}.cls-6{fill:#ff7979;}.cls-7{fill:#4d4d4d;}</style></defs><title>404-panda</title><g id="Layer_2" data-name="Layer 2"><g id="OBJECTS"><path class="cls-1" d="M45.87,342.77H41l-.83-5.56H34.26l-.83,5.56H29l4.9-30.65H41Zm-11-9.72h4.64l-2.32-15.5Z"/><path class="cls-1" d="M61.46,342.77A9.26,9.26,0,0,1,61,339v-4.82c0-2.85-1-3.9-3.16-3.9H56.2v12.48H51.38V312.12h7.27c5,0,7.14,2.32,7.14,7.05v2.41c0,3.15-1,5.21-3.15,6.21,2.41,1,3.19,3.33,3.19,6.53v4.73a9,9,0,0,0,.53,3.72ZM56.2,316.5v9.41h1.88c1.8,0,2.89-.79,2.89-3.24v-3c0-2.19-.74-3.15-2.45-3.15Z"/><path class="cls-1" d="M77.08,325H83.7v4.38H77.08v9h8.33v4.38H72.27V312.12H85.41v4.38H77.08Z"/><path class="cls-1" d="M106.25,332.61l-6.09-20.49h5l3.68,14,3.68-14h4.6l-6.09,20.49v10.16h-4.81Z"/><path class="cls-1" d="M121.31,319.47c0-4.9,2.58-7.7,7.31-7.7s7.31,2.8,7.31,7.7v15.94c0,4.91-2.58,7.71-7.31,7.71s-7.31-2.8-7.31-7.71Zm4.81,16.25c0,2.19,1,3,2.5,3s2.5-.83,2.5-3V319.17c0-2.19-1-3-2.5-3s-2.5.83-2.5,3Z"/><path class="cls-1" d="M146.92,312.12v23.65c0,2.18,1,3,2.5,3s2.49-.79,2.49-3V312.12h4.56v23.34c0,4.9-2.45,7.71-7.18,7.71s-7.18-2.81-7.18-7.71V312.12Z"/><path class="cls-1" d="M188.7,342.77h-4.87l-.83-5.56h-5.91l-.83,5.56h-4.43l4.91-30.65h7Zm-11-9.72h4.64L180,317.55Z"/><path class="cls-1" d="M218.56,319.69v4c0,4.9-2.37,7.57-7.19,7.57H209.1v11.52h-4.82V312.12h7.09C216.19,312.12,218.56,314.79,218.56,319.69Zm-9.46-3.19v10.38h2.27c1.54,0,2.37-.71,2.37-2.9v-4.59c0-2.19-.83-2.89-2.37-2.89Z"/><path class="cls-1" d="M239.09,342.77h-4.86l-.83-5.56h-5.91l-.83,5.56h-4.43l4.91-30.65h7.05Zm-11-9.72h4.64l-2.32-15.5Z"/><path class="cls-1" d="M248.9,320.57v22.2h-4.34V312.12h6.05l4.94,18.35V312.12h4.3v30.65h-5Z"/><path class="cls-1" d="M266.59,312.12h7.62c4.81,0,7.18,2.67,7.18,7.57V335.2c0,4.9-2.37,7.57-7.18,7.57h-7.62Zm4.81,4.38v21.89h2.72c1.53,0,2.45-.79,2.45-3V319.47c0-2.19-.92-3-2.45-3Z"/><path class="cls-1" d="M303.28,342.77h-4.86l-.83-5.56h-5.91l-.84,5.56h-4.42l4.91-30.65h7.05Zm-11-9.72h4.64l-2.32-15.5Z"/><path class="cls-1" d="M311,336a5.83,5.83,0,0,1-.26-1.88c0-6.7,5.26-7.31,5.26-14.93,0-2.19-.88-3-2.41-3s-2.41.83-2.41,3v3.33h-4.55v-3c0-4.9,2.4-7.7,7.09-7.7s7.09,2.8,7.09,7.7c0,8-5.69,9.2-5.69,14.81a7,7,0,0,0,.18,1.7Zm4.43,2.15v4.64h-4.64v-4.64Z"/><path class="cls-2" d="M22.16,354.78c2,0,3,1.17,3,3.23v.41H23.22v-.54c0-.92-.36-1.26-1-1.26s-1,.34-1,1.26c0,2.65,3.95,3.14,3.95,6.82,0,2.06-1,3.23-3,3.23s-3-1.17-3-3.23v-.79H21v.92c0,.92.4,1.25,1,1.25s1.05-.33,1.05-1.25c0-2.65-3.95-3.14-3.95-6.82C19.18,356,20.19,354.78,22.16,354.78Z"/><path class="cls-2" d="M27.1,354.93h6.25v1.83H31.24v11h-2v-11H27.1Z"/><path class="cls-2" d="M35.44,358c0-2.06,1.09-3.23,3.07-3.23S41.58,356,41.58,358v6.69c0,2.06-1.08,3.23-3.07,3.23s-3.07-1.17-3.07-3.23Zm2,6.82c0,.92.41,1.27,1,1.27s1.05-.35,1.05-1.27v-6.95c0-.92-.4-1.26-1.05-1.26s-1,.34-1,1.26Z"/><path class="cls-2" d="M50.25,358.1v1.68c0,2.05-1,3.17-3,3.17h-1v4.84h-2V354.93h3C49.26,354.93,50.25,356.05,50.25,358.1Zm-4-1.34v4.36h1c.64,0,1-.3,1-1.22V358c0-.92-.35-1.22-1-1.22Z"/><path class="cls-2" d="M58.91,360.35h2.77v1.83H58.91V366H62.4v1.84H56.89V354.93H62.4v1.83H58.91Z"/><path class="cls-2" d="M71.57,367.79h-2l-.35-2.34H66.7l-.35,2.34H64.5l2-12.86h3ZM67,363.71H68.9l-1-6.51Z"/><path class="cls-2" d="M73.3,354.93h6.24v1.83H77.43v11h-2v-11H73.3Z"/><path class="cls-2" d="M81.8,354.93h2v12.86h-2Z"/><path class="cls-2" d="M88.47,358.47v9.32H86.66V354.93h2.53l2.08,7.69v-7.69h1.8v12.86H91Z"/><path class="cls-2" d="M98.93,360.62h2.83v4.08c0,2.06-1,3.23-3,3.23s-3-1.17-3-3.23V358c0-2.06,1-3.23,3-3.23s3,1.17,3,3.23v1.25H99.85v-1.38c0-.92-.41-1.26-1-1.26s-1,.34-1,1.26v6.95c0,.92.41,1.25,1,1.25s1-.33,1-1.25v-2.37h-.92Z"/><path class="cls-2" d="M114.71,357.88v.46a2.51,2.51,0,0,1-1.3,2.59c1.08.43,1.51,1.4,1.51,2.76v1.05a2.74,2.74,0,0,1-3.07,3.05h-3.18V354.93h3C113.81,354.93,114.71,355.9,114.71,357.88Zm-4-1.12v3.4h.79c.75,0,1.21-.33,1.21-1.36v-.71c0-.92-.31-1.33-1-1.33Zm0,5.24V366h1.16c.68,0,1-.31,1-1.27v-1.12c0-1.19-.38-1.56-1.3-1.56Z"/><path class="cls-2" d="M124.05,367.79h-2l-.35-2.34h-2.48l-.35,2.34H117L119,354.93h3Zm-4.61-4.08h1.94l-1-6.51Z"/><path class="cls-2" d="M130.65,364.06l1.37-9.13h2.81v12.86h-1.91v-9.23l-1.39,9.23h-1.91l-1.51-9.1v9.1h-1.76V354.93h2.81Z"/><path class="cls-2" d="M143.73,357.88v.46a2.52,2.52,0,0,1-1.31,2.59c1.09.43,1.51,1.4,1.51,2.76v1.05a2.74,2.74,0,0,1-3.07,3.05h-3.18V354.93h3C142.83,354.93,143.73,355.9,143.73,357.88Zm-4-1.12v3.4h.79c.76,0,1.22-.33,1.22-1.36v-.71c0-.92-.32-1.33-1-1.33Zm0,5.24V366h1.16c.68,0,1-.31,1-1.27v-1.12c0-1.19-.39-1.56-1.31-1.56Z"/><path class="cls-2" d="M146.36,358c0-2.06,1.08-3.23,3.06-3.23s3.07,1.17,3.07,3.23v6.69c0,2.06-1.08,3.23-3.07,3.23s-3.06-1.17-3.06-3.23Zm2,6.82c0,.92.4,1.27,1,1.27s1.05-.35,1.05-1.27v-6.95c0-.92-.4-1.26-1.05-1.26s-1,.34-1,1.26Z"/><path class="cls-2" d="M155,358c0-2.06,1.08-3.23,3.07-3.23s3.07,1.17,3.07,3.23v6.69c0,2.06-1.09,3.23-3.07,3.23S155,366.76,155,364.7Zm2,6.82c0,.92.41,1.27,1.05,1.27s1-.35,1-1.27v-6.95c0-.92-.41-1.26-1-1.26S157,357,157,357.88Z"/><path class="cls-2" d="M174.6,367.79h-2l-.35-2.34h-2.48l-.35,2.34h-1.86l2.06-12.86h3ZM170,363.71h1.94l-1-6.51Z"/><path class="cls-2" d="M178.71,358.47v9.32H176.9V354.93h2.53l2.08,7.69v-7.69h1.8v12.86h-2.08Z"/><path class="cls-2" d="M186.14,354.93h3.2c2,0,3,1.12,3,3.17v6.51c0,2.05-1,3.18-3,3.18h-3.2Zm2,1.83V366h1.14c.64,0,1-.33,1-1.25V358c0-.92-.39-1.25-1-1.25Z"/><path class="cls-2" d="M203.52,364.06l1.38-9.13h2.81v12.86H205.8v-9.23l-1.4,9.23h-1.91l-1.5-9.1v9.1h-1.77V354.93H202Z"/><path class="cls-2" d="M217.1,367.79h-2l-.35-2.34h-2.48l-.35,2.34H210l2.05-12.86h3Zm-4.61-4.08h1.95l-1-6.51Z"/><path class="cls-2" d="M222.06,362.66l-.62,1.18v4h-2V354.93h2v5.6l2.64-5.6h2l-2.81,5.73,2.81,7.13H224Z"/><path class="cls-2" d="M230.42,360.35h2.78v1.83h-2.78V366h3.49v1.84H228.4V354.93h5.51v1.83h-3.49Z"/><path class="cls-2" d="M247.31,367.79h-2l-.35-2.34h-2.48l-.35,2.34h-1.85l2-12.86h3Zm-4.61-4.08h1.94l-1-6.51Z"/><path class="cls-2" d="M253.85,354.93h3.2c2,0,3,1.12,3,3.17v6.51c0,2.05-1,3.18-3,3.18h-3.2Zm2,1.83V366H257c.64,0,1-.33,1-1.25V358c0-.92-.39-1.25-1-1.25Z"/><path class="cls-2" d="M262.73,354.93h2v12.86h-2Z"/><path class="cls-2" d="M269.62,360.64h2.6v1.84h-2.6v5.31h-2V354.93h5.35v1.83h-3.32Z"/><path class="cls-2" d="M277.32,360.64h2.6v1.84h-2.6v5.31h-2V354.93h5.35v1.83h-3.32Z"/><path class="cls-2" d="M285,360.35h2.78v1.83H285V366h3.49v1.84H283V354.93h5.51v1.83H285Z"/><path class="cls-2" d="M295.36,367.79a4.05,4.05,0,0,1-.18-1.58v-2c0-1.2-.41-1.64-1.33-1.64h-.69v5.24h-2V354.93h3.05c2.1,0,3,1,3,2.95v1a2.56,2.56,0,0,1-1.32,2.61c1,.43,1.34,1.4,1.34,2.74v2a3.69,3.69,0,0,0,.22,1.57Zm-2.2-11v3.95H294c.75,0,1.21-.33,1.21-1.36v-1.26c0-.92-.31-1.33-1-1.33Z"/><path class="cls-2" d="M301.92,360.35h2.77v1.83h-2.77V366h3.49v1.84H299.9V354.93h5.51v1.83h-3.49Z"/><path class="cls-2" d="M309.84,358.47v9.32H308V354.93h2.54l2.07,7.69v-7.69h1.8v12.86h-2.07Z"/><path class="cls-2" d="M323.12,363v1.71c0,2.06-1,3.23-3,3.23s-3-1.17-3-3.23V358c0-2.06,1-3.23,3-3.23s3,1.17,3,3.23v1.25h-1.91v-1.38c0-.92-.4-1.26-1-1.26s-1.05.34-1.05,1.26v6.95c0,.92.4,1.25,1.05,1.25s1-.33,1-1.25V363Z"/><path class="cls-2" d="M327.76,360.35h2.77v1.83h-2.77V366h3.49v1.84h-5.51V354.93h5.51v1.83h-3.49Z"/><circle class="cls-2" cx="173.39" cy="188.06" r="97.06" transform="translate(-2.53 2.37) rotate(-0.78)"/><path class="cls-2" d="M0,193.33l49.05-66.62H76.79v66.62h9.33v15.94H76.79v22.66H49V209.27H0Zm49,0V160.47L26.12,193.33Z"/><path class="cls-2" d="M259.52,193.33l49.05-66.62h27.74v66.62h9.88v15.94h-9.88v22.66H308.56V209.27h-49Zm49,0V160.47l-22.91,32.86Z"/><path class="cls-1" d="M245,113.81c-8.56-3.64-24.34-2.42-31,15.87L247.49,155C263,145.11,262.15,121.42,245,113.81Zm-6,28.75-11.7-8.85c2.32-6.4,7.84-6.83,10.83-5.55C244.17,130.82,244.47,139.11,239,142.56Z"/><path class="cls-3" d="M238.17,128.16c-3-1.28-8.51-.85-10.83,5.55l11.7,8.85C244.47,139.11,244.17,130.82,238.17,128.16Z"/><path class="cls-1" d="M102.48,113.81c-17.15,7.61-18,31.3-2.48,41.18l33.43-25.31C126.81,111.39,111,110.17,102.48,113.81Zm6,28.75c-5.44-3.45-5.13-11.74.87-14.4,3-1.28,8.51-.85,10.83,5.55Z"/><path class="cls-3" d="M109.32,128.16c-6,2.66-6.31,11-.87,14.4l11.7-8.85C117.83,127.31,112.31,126.88,109.32,128.16Z"/><path class="cls-4" d="M218,212.52c17.21-12.91,34.22-8.4,43.48-4.1,1-6.78,8.43-88.76-87.7-88.76h-.1c-95,0-88.66,82-87.71,88.76,9.26-4.3,26.27-8.81,43.48,4.1s16.83,32.33,14.73,43.44a173.15,173.15,0,0,0,29.5,2.54h.1A173.12,173.12,0,0,0,203.25,256C201.16,244.85,200.67,225.49,218,212.52Zm-44.14-8c-2,0-5.26-2.91-5.62-5.58-.49-3.15,3.64-3.4,5.94-3.52C184,195.38,177.08,204.5,173.84,204.5Z"/><path class="cls-1" d="M174.16,195.4c-2.3.12-6.43.37-5.94,3.52.36,2.67,3.64,5.58,5.62,5.58C177.08,204.5,184,195.38,174.16,195.4Z"/><path class="cls-4" d="M129.43,212.52c-17.21-12.91-34.22-8.4-43.48-4.1,4,28.18,28.76,42.26,58.21,47.54C146.26,244.85,146.74,225.49,129.43,212.52Z"/><path class="cls-4" d="M261.46,208.42c-9.26-4.3-26.27-8.81-43.48,4.1S201.16,244.85,203.25,256C232.7,250.68,257.51,236.6,261.46,208.42Z"/><path class="cls-5" d="M129.43,212.52c-17.21-12.91-34.22-8.4-43.48-4.1,4,28.18,28.76,42.26,58.21,47.54C146.26,244.85,146.74,225.49,129.43,212.52Z"/><path class="cls-6" d="M158.77,237.64c1.55,5.47,7.64,9.56,14.94,9.56a16.87,16.87,0,0,0,12.08-4.74C178.59,236.51,166.48,234.25,158.77,237.64Z"/><path class="cls-1" d="M189,234.91c0-6.79-6.86-12.29-15.32-12.29s-15.33,5.5-15.33,12.29a10,10,0,0,0,.39,2.73c7.71-3.39,19.82-1.13,27,4.82A10.78,10.78,0,0,0,189,234.91Z"/><path class="cls-5" d="M261.46,208.42c-9.26-4.3-26.27-8.81-43.48,4.1S201.16,244.85,203.25,256C232.7,250.68,257.51,236.6,261.46,208.42Z"/><path class="cls-1" d="M160.69,171.24c5.9,8.26-.19,22.72-13.6,32.29s-29.06,10.65-35,2.39.2-22.72,13.61-32.29S154.8,163,160.69,171.24Z"/><path class="cls-1" d="M186.72,171.24c-5.9,8.26.19,22.72,13.6,32.29s29.06,10.65,35,2.39-.2-22.72-13.61-32.29S192.61,163,186.72,171.24Z"/><path class="cls-4" d="M203.11,182.31a5.75,5.75,0,1,0,5.75,5.75A5.75,5.75,0,0,0,203.11,182.31Zm0,7.27a1.52,1.52,0,1,1,1.52-1.52A1.52,1.52,0,0,1,203.11,189.58Z"/><path class="cls-4" d="M144.3,182.31a5.75,5.75,0,1,0,5.75,5.75A5.75,5.75,0,0,0,144.3,182.31Zm0,7.27a1.52,1.52,0,1,1,1.52-1.52A1.52,1.52,0,0,1,144.3,189.58Z"/><path class="cls-7" d="M242.29,117.06A16.23,16.23,0,0,1,254,132.14c0,3.68-3.46,5.51-7.85-4.52-3.29-7.5-12-7.36-10.9-9.42C236.07,116.55,239.82,116.38,242.29,117.06Z"/><path class="cls-7" d="M105.2,117.06a16.24,16.24,0,0,0-11.68,15.08c0,3.68,3.46,5.51,7.86-4.52,3.29-7.5,12-7.36,10.89-9.42C111.41,116.55,107.66,116.38,105.2,117.06Z"/><path class="cls-1" d="M173.39,112.16c4.8-40.35,51.43-31.91,87-32.63,28.76-.59,44.11-3.65,42.12-34.63C301.82,34,311.63-4.54,253.62.6S134.46-1,97.52.13s-50.3,8.81-51,42.21S50.87,81.9,105,78.94C175.32,75.09,173.39,112.16,173.39,112.16Z"/><path class="cls-4" d="M100.09,41.6c0,8.59-3.8,21.63-13.1,21.63-13,0-14-16.06-14-22.46,0-17.08,8.41-21.17,13.63-21.17C99.44,19.6,100.09,32.94,100.09,41.6Zm-10.44.53c0-3-1-5.93-2.72-5.93-2.2,0-3,3.91-3,6.46,0,2.37.18,5.52,2.55,5.52S89.65,45.09,89.65,42.13Z"/><path class="cls-4" d="M142.59,40.83c0,4-1.12,21.75-17.07,21.75-8,0-11.92-5.69-14-11.44a39.27,39.27,0,0,1-2.08-11.5c0-10.67,7.59-20.33,15.36-20.33,3.26,0,6.1-.12,8.18,1.24C140.87,25.83,142.59,37.68,142.59,40.83Zm-4.92,0c0-9.67-4.56-18-11.62-18-2.19,0-3.85-.17-5.51,1.66s-7.29,6.53-7.29,15.83,3.14,19,12,19S137.67,50.55,137.67,40.83Z"/><path class="cls-4" d="M179.11,41.6c0,8.59-3.79,21.63-13.1,21.63-13,0-14-16.06-14-22.46,0-17.08,8.42-21.17,13.63-21.17C178.46,19.6,179.11,32.94,179.11,41.6Zm-10.43.53c0-3-1-5.93-2.73-5.93-2.19,0-3,3.91-3,6.46,0,2.37.17,5.52,2.54,5.52S168.68,45.09,168.68,42.13Z"/><path class="cls-4" d="M191.62,20.79c1.48,0,5.1-.59,7.76-.59,8,0,13.05,0,15.71,3.14,1.6,1.95,3.62,4,3.62,7.94,0,7.17-5.16,10.67-10.14,12.39a33.52,33.52,0,0,1-10.13,1.66l-.12,6.46-.12,8.36c0,1.48-.71,1.78-1.42,1.78-.48,0-.95-.12-1.31-.12-.95,0-3.61.24-4.56.24s-1.13-.77-1.13-1.9.24-9.66.24-12.8V31.1c0-.89.06-3.08.23-5.15l.24-3.92C190.49,20.67,190.85,20.79,191.62,20.79Zm11.32,21.28a22,22,0,0,0,7.17-1.48c2.73-1.31,4.15-3.32,4.15-7.23a24.12,24.12,0,0,0-.47-4.69c-.65-3.55-4.39-5-7.94-5.45a25.31,25.31,0,0,0-3.8-.24c-1,0-2.07.06-3.2.12l-.35,19.15A26.94,26.94,0,0,0,202.94,42.07Z"/><path class="cls-4" d="M254.28,25.89a.7.7,0,0,1,.24.53,2.29,2.29,0,0,1-.36.83c-.41.53-1.42,2.25-2.07,3s-.54,1-1.19,1-6.05-6.1-10.37-6.1c-1.55,0-3.8.12-3.8,4.09s4.21,5.57,6.94,6.7S255.23,40,255.23,51.79c0,7.83-6.4,11.38-16.07,11.38S226.42,57,225.88,56.48a1,1,0,0,1-.23-.6c0-.23.17-.41.47-.77a30,30,0,0,1,2.25-2.55.64.64,0,0,1,.48-.23c.41,0,.77.65,1.24,1.12A11,11,0,0,0,238,57c2.13,0,5.57-.47,5.57-4.09s-3.8-6.82-6.46-8.71-10.79-4.63-10.79-12.28,8.65-12.44,13-12.44A21.29,21.29,0,0,1,254.28,25.89Z"/><path class="cls-4" d="M266,19.72a1.44,1.44,0,0,1,.47.06c1,.06,2.91-.12,5.57.06,1,.12,1.31.42,1.31.95,0,.35-.12.77-.18,1.3S273,24,273,25.83s-.23,5.1-.53,10c0,1.12-.06,2.19-.06,3.2s.06,1.78.06,2.55a15.51,15.51,0,0,1,.12,2.55,6.35,6.35,0,0,0-.06,1.24c0,1.66.12,4.27.12,5.16.06,1.12-.89,1.18-1.78,1.12h-3c-1.36.06-1.36-.83-1.42-1.83a16.24,16.24,0,0,1-.12-2.67V44.8l-.11-4.63Q266,36,265.42,29.86c-.41-4.09-.59-6.28-.59-6.52V22C264.83,20.14,265.36,19.72,266,19.72Zm7.29,38.89a1.79,1.79,0,0,1-.06.59,4.58,4.58,0,0,1-4.15,3.62c-2,0-3.68-2.08-3.68-4.45a3.91,3.91,0,0,1,.06-.83c.48-2.49,2.55-2.9,4-2.9A3.83,3.83,0,0,1,273.31,58.61Z"/></g></g></svg>