<svg xmlns="http://www.w3.org/2000/svg" xmlns:xlink="http://www.w3.org/1999/xlink" viewBox="0 0 357.37 300.97"><defs><style>.cls-1,.cls-13,.cls-14,.cls-4,.cls-7{fill:none;}.cls-10,.cls-2{fill:#6f9bf2;}.cls-3,.cls-6{fill:#fff;}.cls-3{opacity:0.7;}.cls-10,.cls-14,.cls-4,.cls-6,.cls-7,.cls-8{stroke:#263238;}.cls-4{stroke-miterlimit:10;}.cls-5,.cls-8{fill:#263238;}.cls-10,.cls-13,.cls-14,.cls-6,.cls-7,.cls-8{stroke-linecap:round;stroke-linejoin:round;}.cls-9{clip-path:url(#clip-path);}.cls-11{clip-path:url(#clip-path-2);}.cls-12{clip-path:url(#clip-path-3);}.cls-13{stroke:#7d7d7d;}.cls-14{stroke-width:2px;}</style><clipPath id="clip-path"><rect class="cls-1" x="23.92" y="57.99" width="79.5" height="206.09"/></clipPath><clipPath id="clip-path-2"><path class="cls-1" d="M191.82,135.22H47.28V263.7H158.49a.63.63,0,0,0,.37.24H159a.94.94,0,0,0,.48.3l-.09.74,1,3.84,1.75-3.32h0l0-.18.21,0a3.36,3.36,0,0,0,2.3.79.28.28,0,0,0,.08.12c.88.7,5.41,1.4,6.81-.35A2.7,2.7,0,0,0,172,265a16.87,16.87,0,0,0,3.88-1.32h15.9Z"/></clipPath><clipPath id="clip-path-3"><rect class="cls-1" x="112.77" y="96.15" width="198.88" height="167.66"/></clipPath></defs><title>home-tuitor</title><g id="Layer_2" data-name="Layer 2"><g id="Background_Simple" data-name="Background Simple"><path class="cls-2" d="M345.62,146.91c1.79-23.79-3.75-48.65-11.16-70.8C323.44,43.2,302.05,9.46,266,1.67c-20.77-4.49-41.91.32-59.71,11.57-17.12,10.83-30.48,24.81-51.53,27.51-21.29,2.75-43.14,1.64-64.55,1.64-55,0-99.69,57.82-88.53,118s63.81,102,108.47,102c40.14,0,73.16-24.08,111.28-30.54,18.9-3.21,37.88.58,56.59-4.22,21.74-5.58,42.19-18.91,54.23-38.2C340.5,176.3,344.5,161.82,345.62,146.91Z"/><path class="cls-3" d="M345.62,146.91c1.79-23.79-3.75-48.65-11.16-70.8C323.44,43.2,302.05,9.46,266,1.67c-20.77-4.49-41.91.32-59.71,11.57-17.12,10.83-30.48,24.81-51.53,27.51-21.29,2.75-43.14,1.64-64.55,1.64-55,0-99.69,57.82-88.53,118s63.81,102,108.47,102c40.14,0,73.16-24.08,111.28-30.54,18.9-3.21,37.88.58,56.59-4.22,21.74-5.58,42.19-18.91,54.23-38.2C340.5,176.3,344.5,161.82,345.62,146.91Z"/></g><g id="Pictures"><rect class="cls-4" x="116.85" y="58.23" width="58.67" height="81.33"/><rect class="cls-4" x="124.07" y="68.23" width="44.24" height="61.33"/><rect class="cls-4" x="242.19" y="100.23" width="40.87" height="56.67"/><rect class="cls-4" x="247.21" y="107.2" width="30.82" height="42.73"/></g><g id="Plants"><path class="cls-5" d="M335.51,207.54s.78-2.84.8-3c.3-2.16-.38-6.49-2.57-7.55a2.89,2.89,0,0,0-3.92,1.74c-.59,1.61.16,3.59,1,4.95C331.89,205.26,335.51,207.54,335.51,207.54Z"/><path class="cls-5" d="M292.32,206.6c1.75.76,6,.67,6,.67s-.92-2.8-1-3c-.94-2-3.9-5.19-6.31-4.87a2.88,2.88,0,0,0-2.31,3.61C289.12,204.71,290.83,206,292.32,206.6Z"/><path class="cls-5" d="M299,197.94l0,0c-.1.69-.19,1.42-.28,2.23-.14,1.49-.3,3.18-.34,5a50.7,50.7,0,0,0,.14,6,36.79,36.79,0,0,0,1.11,6.58.24.24,0,0,0,0,.08c-.38-.6-1.51-2.25-1.61-2.36-1.42-1.65-5.13-4-7.37-3a2.87,2.87,0,0,0-1.28,4.09c.83,1.5,2.81,2.25,4.41,2.48,1.82.26,5.63-.84,5.93-.93a50.62,50.62,0,0,0,2.31,6.39c.52,1.22,1.09,2.42,1.67,3.63-.34-.51-.66-1-.71-1-1.42-1.65-5.13-4-7.37-3a2.88,2.88,0,0,0-1.28,4.09c.83,1.51,2.81,2.25,4.41,2.49s4.9-.64,5.76-.88c.23.45.45.91.68,1.37,1.11,2.2,2.22,4.39,3.24,6.57.36.76.69,1.53,1,2.3-.31-.45-.57-.83-.62-.88-1.42-1.64-5.13-4-7.37-3a2.88,2.88,0,0,0-1.28,4.09c.83,1.5,2.81,2.25,4.42,2.48s4.58-.55,5.6-.84c.31.8.63,1.6.9,2.38.17.55.37,1.05.52,1.61l.45,1.62c.25,1,.51,2.11.73,3.13.16.71.29,1.38.43,2.07-.35-.77-1.07-2.26-1.14-2.38-1.16-1.84-4.47-4.71-6.83-4.11a2.88,2.88,0,0,0-1.88,3.85c.59,1.61,2.43,2.65,4,3.12s5.49,0,6,0c.23,1.13.44,2.23.62,3.28.57,3.27.95,6.07,1.2,8.14h1.64c-.3-2.11-.75-5-1.43-8.41-.22-1.15-.49-2.37-.77-3.62a32.54,32.54,0,0,0,3.33-1.57,20.78,20.78,0,0,0,4.85,3.13c-.44,1.07-.87,2.1-1.29,3.07-1.32,3-2.53,5.54-3.47,7.4h1.79c.85-1.81,1.89-4.12,3-6.84.45-1.08.9-2.25,1.36-3.45.46.1,4.2.86,5.95.47,1.58-.36,3.5-1.26,4.2-2.82a2.87,2.87,0,0,0-1.59-4c-2.3-.78-5.82,1.84-7.11,3.59-.08.1-.78,1.32-1.21,2.09.19-.49.37-1,.55-1.48.37-1,.71-2,1.08-3.1.15-.53.32-1.07.48-1.61s.28-1.12.43-1.69c.31-1.31.57-2.66.79-4,.88.32,4,1.41,5.65,1.3s3.65-.71,4.58-2.15a2.88,2.88,0,0,0-1-4.17c-2.17-1.12-6,.94-7.58,2.47-.1.1-1.08,1.32-1.61,2,.13-.82.27-1.64.37-2.47.3-2.42.53-4.87.77-7.31.07-.75.15-1.49.23-2.24.31.12,4,1.49,5.83,1.37,1.62-.12,3.65-.71,4.59-2.15a2.87,2.87,0,0,0-1-4.17c-2.16-1.12-6,.94-7.58,2.47-.11.11-1.52,1.88-1.86,2.34.18-1.64.36-3.28.62-4.88a50.15,50.15,0,0,1,1.4-6.43c.14.06,4,1.51,5.87,1.38,1.61-.11,3.64-.7,4.58-2.14a2.88,2.88,0,0,0-1-4.18c-2.16-1.11-6,.94-7.57,2.48-.1.1-1.18,1.44-1.68,2.09l-.12-.07a37.32,37.32,0,0,1,2.55-6.1c.56-1.08,1.14-2.08,1.74-3,.69.35,3.87,1.89,5.56,2s3.7-.31,4.79-1.63a2.88,2.88,0,0,0-.5-4.26c-2-1.34-6.11.27-7.81,1.63-.09.07-.94.92-1.56,1.55.28-.43.55-.88.82-1.29,1-1.53,2-2.87,3-4,.52-.67,1-1.26,1.48-1.81.85,0,4.3-.12,5.8-.82s3.15-2,3.5-3.66a2.87,2.87,0,0,0-2.4-3.54c-2.42-.26-5.3,3.05-6.18,5-.08.18-1,3-.92,3h0c-.45.52-.94,1.09-1.46,1.71-.94,1.16-2,2.49-3.06,4a54.07,54.07,0,0,0-3.17,5.06,37.76,37.76,0,0,0-2.71,6.1s0,0,0,.07c0-.71,0-2.7,0-2.85-.28-2.16-2.08-6.16-4.48-6.6a2.88,2.88,0,0,0-3.32,2.71c-.14,1.71,1.1,3.42,2.32,4.5s5.15,2.4,5.45,2.5a49.67,49.67,0,0,0-1.6,6.6c-.23,1.31-.43,2.62-.6,4,0-.62,0-1.17,0-1.25-.27-2.15-2.08-6.15-4.47-6.59a2.87,2.87,0,0,0-3.32,2.71c-.14,1.71,1.1,3.42,2.31,4.5s4.44,2.17,5.29,2.44c-.06.51-.13,1-.19,1.53-.3,2.44-.58,4.88-.92,7.26-.13.84-.28,1.66-.43,2.48,0-.54,0-1,0-1.07-.27-2.16-2.08-6.16-4.47-6.6a2.87,2.87,0,0,0-3.32,2.71c-.14,1.71,1.1,3.42,2.31,4.5s4.12,2.07,5.13,2.39c-.17.84-.35,1.68-.56,2.49-.15.54-.27,1.08-.45,1.62s-.35,1.07-.52,1.6c-.36,1-.74,2-1.12,3-.26.68-.52,1.32-.78,2,.13-.84.36-2.48.36-2.61a11.21,11.21,0,0,0-1.5-5.44,2.72,2.72,0,0,0,0-.64,2.87,2.87,0,0,0-3.52-2.44c-2.35.62-3.84,4.75-3.95,6.92,0,.13.08,1.52.14,2.4-.12-.51-.22-1-.35-1.53-.25-1-.53-2.07-.82-3.18-.16-.53-.32-1.07-.49-1.61s-.38-1.09-.56-1.64c-.47-1.27-1-2.54-1.57-3.8.91-.22,4.13-1,5.43-2s2.65-2.61,2.64-4.32a2.88,2.88,0,0,0-3.11-3c-2.42.26-4.52,4.11-5,6.24,0,.13-.17,1.7-.23,2.56-.35-.76-.69-1.52-1.06-2.27-1.08-2.18-2.25-4.35-3.4-6.52-.35-.66-.69-1.33-1-2,.33-.07,4.18-1,5.62-2.07s2.66-2.61,2.64-4.32a2.87,2.87,0,0,0-3.11-2.95c-2.41.26-4.51,4.11-4.95,6.24,0,.16-.24,2.41-.26,3-.76-1.46-1.51-2.93-2.18-4.41a49.92,49.92,0,0,1-2.38-6.13c.15,0,4.17-1,5.66-2.09,1.28-1,2.65-2.6,2.64-4.32a2.89,2.89,0,0,0-3.11-3c-2.42.27-4.52,4.12-5,6.25,0,.14-.18,1.85-.24,2.67h-.14a37.25,37.25,0,0,1-1.23-6.5c-.14-1.2-.2-2.37-.24-3.5.77-.09,4.27-.56,5.71-1.43s2.93-2.3,3.1-4a2.87,2.87,0,0,0-2.76-3.27c-2.44,0-5,3.59-5.62,5.66,0,.11-.28,1.3-.44,2.16,0-.51,0-1,0-1.53,0-1.84.11-3.52.23-5,.07-.85.15-1.62.24-2.33.7-.48,3.52-2.47,4.38-3.89s1.54-3.38.91-5a2.88,2.88,0,0,0-4-1.63c-2.16,1.12-2.73,5.47-2.37,7.61C298.09,195.13,298.91,198,299,197.94Z"/></g><g id="Books"><polygon class="cls-6" points="187.42 267.34 153.4 267.34 128.81 280.62 165.92 280.62 187.42 267.34"/><line class="cls-7" x1="153.04" y1="270.56" x2="178.76" y2="270.56"/><line class="cls-7" x1="149.1" y1="272.62" x2="174.81" y2="272.62"/><line class="cls-7" x1="145.15" y1="274.69" x2="170.87" y2="274.69"/><line class="cls-7" x1="141.2" y1="276.75" x2="166.92" y2="276.75"/><polygon class="cls-6" points="128.81 280.62 128.81 282.9 166.69 282.9 165.92 280.62 128.81 280.62"/><polygon class="cls-6" points="166.69 282.9 188.41 269.3 187.42 267.34 165.92 280.62 166.69 282.9"/><path class="cls-7" d="M129.43,279.94a2.61,2.61,0,0,1-.09-.69,2.64,2.64,0,0,1,2.64-2.64,2.59,2.59,0,0,1,1.86.77"/><path class="cls-7" d="M132.88,278.32a2.69,2.69,0,0,1-.09-.7,2.64,2.64,0,0,1,4.51-1.86"/><path class="cls-7" d="M136.06,276.69A2.61,2.61,0,0,1,136,276a2.64,2.64,0,0,1,2.64-2.64,2.67,2.67,0,0,1,1.87.77"/><path class="cls-7" d="M139.11,275.07a2.61,2.61,0,0,1-.1-.69,2.64,2.64,0,0,1,4.51-1.87"/><path class="cls-7" d="M142.49,273.11a2.69,2.69,0,0,1-.09-.7,2.63,2.63,0,0,1,4.5-1.86"/><path class="cls-7" d="M146.08,271.07a2.61,2.61,0,0,1-.1-.69,2.64,2.64,0,0,1,2.64-2.64,2.67,2.67,0,0,1,1.87.77"/><path class="cls-7" d="M148.05,269.85a2.64,2.64,0,0,1,4.41-2.56"/><path class="cls-6" d="M192,275.27s2.58,5.71-1.71,7.35L215.77,299s2.49,1.43,5.64-1.41.53-9.06-.89-9.85S192,275.27,192,275.27Z"/><path class="cls-8" d="M223.94,262.29l-33,12.67,26.4,14.31a11.24,11.24,0,0,1,3.37,3.66,7.25,7.25,0,0,1,.36,1.14,3.81,3.81,0,0,1-5.68,4.07l-25.12-15.52s-2.33,0,.34,2c2.21,1.67,19.24,12,24.67,15.25a4.18,4.18,0,0,0,3.66.32l36-14.57a4.53,4.53,0,0,0,2-3.08,5.72,5.72,0,0,0-3.28-6.16Z"/></g><g id="Bookshelf"><g class="cls-9"><polygon class="cls-2" points="41.43 101.37 36.54 87.41 41.43 93.34 37.59 72.41 43.52 87.41 45.62 58.1 49.1 86.02 52.94 80.43 52.94 87.41 57.48 77.99 55.04 94.39 59.22 91.6 52.59 100.67 41.43 101.37"/><polygon class="cls-8" points="56.78 97.88 38.64 97.88 41.9 134.51 53.52 134.51 56.78 97.88"/><rect class="cls-6" x="29" y="134.09" width="61.81" height="130.92"/><rect class="cls-6" x="59.9" y="134.09" width="34.29" height="130.92"/><rect class="cls-8" x="59.9" y="134.09" width="30.43" height="130.92"/><rect class="cls-10" x="59.9" y="234.58" width="27.01" height="26.81"/><rect class="cls-6" x="59.9" y="236.03" width="27.01" height="3.44"/><rect class="cls-6" x="59.9" y="255.76" width="27.01" height="3.44"/><line class="cls-7" x1="65.03" y1="235.13" x2="65.03" y2="269.03"/><line class="cls-7" x1="74.45" y1="235.13" x2="74.45" y2="269.03"/><line class="cls-7" x1="82.72" y1="235.13" x2="82.72" y2="269.03"/><rect class="cls-10" x="59.9" y="138.96" width="27.01" height="39.42"/><rect class="cls-6" x="59.9" y="140.61" width="27.01" height="3.91"/><rect class="cls-6" x="59.9" y="165.88" width="27.01" height="3.91"/><line class="cls-7" x1="65.03" y1="139.59" x2="65.03" y2="178.11"/><line class="cls-7" x1="74.45" y1="139.59" x2="74.45" y2="178.11"/><line class="cls-7" x1="82.72" y1="139.59" x2="82.72" y2="178.11"/><rect class="cls-10" x="59.9" y="186.47" width="27.01" height="39.42"/><rect class="cls-6" x="59.9" y="188.12" width="27.01" height="3.91"/><rect class="cls-6" x="59.9" y="213.39" width="27.01" height="3.91"/><line class="cls-7" x1="65.03" y1="187.1" x2="65.03" y2="225.62"/><line class="cls-7" x1="74.45" y1="187.1" x2="74.45" y2="225.62"/><line class="cls-7" x1="82.72" y1="187.1" x2="82.72" y2="225.62"/><rect class="cls-6" x="59.9" y="177.83" width="30.9" height="4.48"/><rect class="cls-6" x="59.9" y="225.64" width="30.9" height="4.48"/><line class="cls-7" x1="90.81" y1="134.09" x2="90.81" y2="265.01"/><polygon class="cls-6" points="55.55 134.09 55.55 265.01 59.9 265.01 59.9 138.96 90.27 138.96 90.27 134.04 55.55 134.09"/><line class="cls-7" x1="59.9" y1="138.96" x2="59.9" y2="134.09"/></g></g><g id="Character_1" data-name="Character 1"><g class="cls-11"><path class="cls-6" d="M131.52,210.94h55.21s3.16.53,2.1,6.86-6.77,46.64-6.77,46.64h-68.2l10.39-51.29S124.66,210.42,131.52,210.94Z"/><path class="cls-8" d="M188.83,217.8c-1.05,6.32-6.77,46.64-6.77,46.64h-5.79c1.41-9.55,6.65-44.92,7.56-49s2.39-4.45,2.79-4.48h.11S189.89,211.47,188.83,217.8Z"/><path class="cls-10" d="M121.69,207.08s-3-.27-4.68-.27-2.75,1.1-5,1.1a100,100,0,0,1-11.82-.55c-4.13-.55-9.08,1.65-9.9,5.77s-2.91,53.77-2.91,53.77h74.13s-1.54-48.16-2.64-53.39-3.85-6-7.7-6.32-6.71.72-14.41.72S121.69,207.08,121.69,207.08Z"/><path class="cls-7" d="M115.75,212.73s2.27,10.9,8.63,13.62"/><path class="cls-7" d="M109.85,210.91s-3.18,6.81,1.36,16.8"/><path class="cls-7" d="M147.54,225s-7.27,18.62-23.16,27.24"/><path class="cls-6" d="M117.56,200.76s.55,7.7,1.38,12.1,5.5,7.15,10.72,5.5,7.43-5.23,7.7-7.7.28-11.83.28-11.83S129.39,204.33,117.56,200.76Z"/><path class="cls-8" d="M145.78,157s.75-1-1.25-4-6.72-5-6.72-5l3,4s-8.47-4.48-12-4.48-12.2,1.25-12.2,1.25l4.23,1s-10.46,3.24-11.7,4.73-7.22,6.48-6,6.48,7.47-1,7.47-1-6.22,6-6.22,8.47,5.47,14.44,5.47,14.44,3.74,6.72,5,3.49-.74-11-.49-11.71,14.69-2,17.92-2,2.74,7.72,4,9,7.22,3.49,8.21,3.49,2.74-.75,2.74-1.74a19,19,0,0,1,1.25-6.23c1-2.49,2.24-4.73,2.49-7.72s-1.5-9.71-1.5-9.71h2.24S149.51,156,145.78,157Z"/><path class="cls-6" d="M111.17,181.11s-1.25-4.73-3.49-1.5c-1.44,2.09,2.24,10.46,4.24,11S111.17,181.11,111.17,181.11Z"/><path class="cls-6" d="M111.17,171.65s0,18.17,1.24,22.65,6.23,11.21,13.45,11.21,12.2-3.74,14.19-6.48,3-8.21,3-8.21,2.24,1.74,5-1.5,3.13-9,2-9.71c-2-1.24-4.23.25-5.23,1.25l-2,2s-3.24-2.24-3.24-5.23.5-8.46.5-8.46l-2.24,1.49.25-2s-.5.5-3.49.5-10.21.49-10.21.49l3.74-5s-7.22,3.24-9.71,4.73S111.17,171.65,111.17,171.65Z"/><path class="cls-5" d="M120.53,182.55c0,1.35-.54,2.45-1.2,2.45s-1.19-1.1-1.19-2.45.53-2.44,1.19-2.44S120.53,181.2,120.53,182.55Z"/><path class="cls-5" d="M132.05,182.89c0,1.35-.53,2.44-1.19,2.44s-1.19-1.09-1.19-2.44.53-2.45,1.19-2.45S132.05,181.54,132.05,182.89Z"/><path class="cls-7" d="M122.53,188.33s0,3.5,4.33,2.67"/><path class="cls-7" d="M121.19,194.66s3.5,2.17,8.34-.16"/><path class="cls-7" d="M115,177.83a3.83,3.83,0,0,1,4.5-1.83"/><path class="cls-7" d="M128.53,176s4-1.17,5.5,1.5"/><path class="cls-10" d="M90.82,211.57,79.77,242s-7.07,5.13-7.84,6.47c-1.89,3.32.58,8,2.87,10.5,3.6,3.86,10.92,4.41,15.31,1.54,2.87-1.88,4.57-5.7,5.65-8.85l1.16-26.73"/><path class="cls-7" d="M75,244.67s5.67-4.67,15,.66"/><path class="cls-6" d="M79.89,247l7.48,1.62s7.15-2.92,7.8.33-4.23,4.22-5.53,4.22-4.55-.32-5.85,0-2.93,2-5.85,2.28c0,0-8.13,3.25-11.38,1.3s-.66-8.78,3.57-11S79.89,247,79.89,247Z"/><path class="cls-6" d="M63.21,249.35s-3.18-1.9-4.2.52-3.92,8-2.1,7.51S63.21,249.35,63.21,249.35Z"/><path class="cls-6" d="M68.18,246s-5.24-.56-5.85,1c-1.14,2.85-2.6,10.73-.33,11.38s2.93-4.23,4.23-7.16A43.67,43.67,0,0,0,68.18,246Z"/><path class="cls-6" d="M71.11,242.72s-3.9-.33-5.21,2.28-2.05,13-.75,13,.94,1,2.89-3.19c.95-2.07,2.42-8.86,2.42-8.86Z"/><path class="cls-6" d="M80.82,247.83s-5.17-4.42-6.54-5.18-2.29-1.06-3.81.31-1.82,6.24-3,9.28-2.43,6.24-.91,6.24A5,5,0,0,0,70.63,256c1.21-1.67,3.49-7.61,3.49-7.61"/><path class="cls-6" d="M73.36,251.48s1.83.76,4.42-.92"/><path class="cls-10" d="M150,207s6.22-1.19,9.24,1.83,11.72,25.75,14.74,33.45,6,13.19,5.23,17-7.15,5.23-11.83,5.5c-5.28.31-8.8-3-8.8-4.12s-1.92-3.58,1.65-12.1l-2.47-18.15"/><path class="cls-6" d="M166.19,249.83s-5.23-2.27-6.11-2.27a5.34,5.34,0,0,0-1.22,3.14c0,1.74.18,8.89,1,9.24s3.49-1.22,5.23-3.66S167.24,250.35,166.19,249.83Z"/><path class="cls-6" d="M162.35,240.08l-3,24,1,3.84,1.75-3.32,3.14-24.24a1.5,1.5,0,0,0-1.31-1.65h0A1.5,1.5,0,0,0,162.35,240.08Z"/><polygon class="cls-6" points="162.18 264.65 159.39 264.13 160.43 267.97 162.18 264.65"/><path class="cls-6" d="M164,238.76a1.5,1.5,0,0,0-1.66,1.32l-.38,3.11,2.91.58.44-3.36A1.5,1.5,0,0,0,164,238.76Z"/><path class="cls-6" d="M160.08,247.56c-.87,0-2.61,2.27-3.66,3.49s-.7,3.83.18,5.93,1.22,5.93,2.26,6.1,1.92-.87,1.92-2.79-.35-5.93-.35-5.93"/><path class="cls-6" d="M171.77,259.94s1.22,3.32-.17,5.06-5.93,1.05-6.81.35S168.63,263.43,171.77,259.94Z"/><path class="cls-6" d="M171.25,256.8a3.68,3.68,0,0,1,.69,3.84c-.87,2.27-4,4.19-6.27,4.54s-4.19-.88-3.14-1.57S168.81,259.42,171.25,256.8Z"/><path class="cls-6" d="M169.15,253s2.1,1.91,2.1,3.83-5.06,6.46-7.5,7.33-3.67,0-3-1.57,7.68-9.42,7.68-9.42S168.11,252.62,169.15,253Z"/><path class="cls-6" d="M163.22,253s-3.83,6.62-4.36,8.72,1.4,2.09,2.62,1.22,7-7.85,7.67-9.94-.52-4.37-2.79-4S163.22,253,163.22,253Z"/></g></g><g id="Character_2" data-name="Character 2"><g class="cls-12"><path class="cls-6" d="M250.65,210.54h55.21s3.16.52,2.11,6.85-6.85,48.76-6.85,48.76H232.93l10.46-53.41S243.8,210,250.65,210.54Z"/><path class="cls-8" d="M308,217.39c-1.05,6.32-6.85,48.76-6.85,48.76h-5.78c1.41-9.55,6.71-47,7.62-51.13s2.4-4.46,2.8-4.48h.1S309,211.06,308,217.39Z"/><path class="cls-10" d="M217.16,178.73s-5.19,6.15-6.73,12.11S205.05,212,203.32,218s-25,47.14-25,47.14l9.23.57s18.25-20,22.29-24.07a105,105,0,0,0,7.11-7.88l1.15,30.57h64s-3.65-23.26-6.73-39.22-6.15-31.14-13.07-40.75-27.49-19.42-27.49-19.42Z"/><line class="cls-7" x1="261.11" y1="211.6" x2="272.32" y2="266.79"/><line class="cls-7" x1="246.88" y1="216.34" x2="255.93" y2="269.38"/><line class="cls-7" x1="231.36" y1="187.02" x2="239.12" y2="267.65"/><line class="cls-7" x1="217.13" y1="193.49" x2="224.89" y2="263.77"/><path class="cls-7" d="M212,198.23s-6.47,28.89-9.92,36.65"/><path class="cls-7" d="M213.68,220.22s-3.88,15.95-6.9,22"/><line class="cls-7" x1="235.24" y1="173.22" x2="245.15" y2="180.12"/><line class="cls-7" x1="216.97" y1="233.71" x2="213.7" y2="207.57"/><path class="cls-6" d="M195.86,233.64c-6.76,13.11-17.52,31.45-17.52,31.45l9.23.57s16.72-18.36,21.62-23.39C205.78,240,200,236.25,195.86,233.64Z"/><path class="cls-6" d="M193.13,238.71s11.15,8.08,12.11,8.08,6.54-5.58,6.92-6.73-13.45-10.58-14.22-10.58S193.13,236,193.13,238.71Z"/><polyline class="cls-7" points="219.85 184.88 221.78 205.07 225.24 204.3 224.85 199.88"/><polygon class="cls-6" points="211.78 182 210.82 189.88 217.93 182.58 211.78 182"/><polygon class="cls-6" points="215.82 175.46 211.78 182 222.74 186.23 225.81 178.16 215.82 175.46"/><path class="cls-6" d="M186.79,131.25s-1.54,9.8-1,11.73,3.07,4.22,3.27,6-4.43,7.69-3.08,9.23a13.43,13.43,0,0,0,4.23,2.69S196,176,198.71,176.62s11.34-4,11.34-4,10.77,9.8,11.34,10.38,11.34-21.15,11.34-21.15-4.8-9.41-4.8-10,7.5-21.15,7.11-29.41-24-16.35-28.83-15.58-15,6.35-15,6.35,3.65-3.08.58-2.89-12.31,7.12-11.92,13.08S186.79,131.25,186.79,131.25Z"/><path class="cls-8" d="M219.66,162.58c1.92-5.38-2.3-15.57-1.92-17.87s2.31-7.89,5.77-7.89,2.88,6.92,2.5,9.81a17.83,17.83,0,0,1-2.12,5.77s2.26-.41,4.06-.69c.43-1.73,7.46-21.29,7.09-29.3-.38-8.27-24-16.35-28.83-15.58s-15,6.35-15,6.35,3.65-3.08.58-2.89-12.31,7.12-11.92,13.08,6.92,7.88,6.92,7.88,12.3-6.15,16.72-6.73-1.34,4.23-1.73,6.92,6.35,4.81,8.85,7.11,4,17.11,2.5,20.57-8.85,1.73-12.31.39-10.57,1.34-10.57,1.34S196,176,198.71,176.62c1.47.31,4.72-.92,7.37-2.11l4-1.93S217.74,168,219.66,162.58Z"/><path class="cls-5" d="M195,148.54c.31,1.23.18,2.33-.29,2.44s-1.08-.79-1.39-2-.18-2.33.29-2.45S194.73,147.3,195,148.54Z"/><path class="cls-13" d="M193.13,164.31a7.78,7.78,0,0,0,6-3.07"/><path class="cls-14" d="M190.06,143.74s.57-2.69,5.38-.76"/><polygon class="cls-6" points="231.97 158.55 218.7 184.5 225.81 193.34 237.93 164.7 231.97 158.55"/><path class="cls-10" d="M247.54,181.81s-6-.77-8.27,1-14,29.41-14,29.41a19,19,0,0,1,9,5.77c3.66,4.42,6.35,12.3,6.35,12.3s15.57-19,18.45-23.26"/><path class="cls-7" d="M248.6,185.72s-5.17.44-6.9,3.45-15.09,30.62-15.09,30.62l5.61,4.74s11.64-24.58,15.09-28.89a17.77,17.77,0,0,1,8.62-5.6"/><line class="cls-7" x1="256.8" y1="198.66" x2="237.82" y2="224.96"/><path class="cls-6" d="M222.35,210.84s-5.19,3.26-5.19,6.92,4.62,11.92,9.62,16,9.42,2.89,11.91,1.16,8.66-2.69,9-9.62-9-16.91-13.07-18.26S222.35,210.84,222.35,210.84Z"/><path class="cls-6" d="M137.77,233.71s-2.12,1.93-4.23,3.46-4.42,2.69-2.5,3.66,4,.19,6.15-.2,4.61-1,4.81-2.5S141.8,232,137.77,233.71Z"/><path class="cls-6" d="M235.62,232.94s3.07-5.38.19-10.76-8.46-7.88-11.92-7.88-62.48,16.53-62.48,16.53-17.88-5-20-4.23-14.8,7.69-17.69,9-2.88,3.07-1.53,3.26,4.8-1,6.53-1.53,7.5-2.7,7.5-2.7a31.23,31.23,0,0,0-1.15,4.23c0,.77,5.38,3.66,6.34,3.66s4.23.57,6.54-.2-1-4-1-4l4-1.73s4,2.11,7.5,1.92a12.48,12.48,0,0,0,5.38-1.35S226.39,235.44,235.62,232.94Z"/><path class="cls-7" d="M139.69,232.94s-2.5,4.81-1.92,5.77,5.57,3.65,5.57,3.65"/><path class="cls-7" d="M143.73,233.14s-2.5,4.8-1.73,5.76,6,3.46,6,3.46"/><line class="cls-7" x1="136.23" y1="234.67" x2="136.61" y2="232.94"/></g></g><g id="Table"><line class="cls-7" x1="356.87" y1="264.28" x2="3.6" y2="264.28"/></g><g id="Device"><polygon class="cls-6" points="131.97 263.72 67.56 263.72 42.98 277 110.47 277 131.97 263.72"/><line class="cls-7" x1="71.78" y1="267.19" x2="119.34" y2="267.19"/><line class="cls-7" x1="68.31" y1="269.67" x2="115.87" y2="269.67"/><line class="cls-7" x1="64.84" y1="272.14" x2="112.4" y2="272.14"/><line class="cls-7" x1="119.58" y1="267.19" x2="105.96" y2="273.88"/><line class="cls-7" x1="112.15" y1="267.19" x2="98.53" y2="273.88"/><polygon class="cls-8" points="31.46 230.67 98.94 230.67 110.47 277 42.98 277 31.46 230.67"/><rect class="cls-6" x="42.98" y="276.99" width="67.49" height="3.29" transform="translate(153.45 557.28) rotate(180)"/><polygon class="cls-6" points="30.71 230.67 98.2 230.67 109.72 277 42.23 277 30.71 230.67"/><polygon class="cls-8" points="110.47 277 131.97 263.72 131.97 266.45 110.47 280.29 110.47 277"/><path class="cls-7" d="M73.15,252.43a3.61,3.61,0,1,1-4.47-3A3.79,3.79,0,0,1,73.15,252.43Z"/></g></g></svg>